<svg xmlns="http://www.w3.org/2000/svg" fill="none" viewBox="0 0 16 18"><path fill="#6A00FE" d="M.286 2.25H4L5.2.675A1.74 1.74 0 0 1 6.57 0h2.86c.266 0 .528.061.766.178s.445.287.605.497L12 2.25h3.714a.3.3 0 0 1 .202.082.28.28 0 0 1 .084.2v.562a.28.28 0 0 1-.084.199.3.3 0 0 1-.202.082h-.675l-1.185 13.089c-.039.42-.235.81-.551 1.094a1.73 1.73 0 0 1-1.157.442H3.854a1.73 1.73 0 0 1-1.157-.442 1.68 1.68 0 0 1-.55-1.094L.96 3.375H.286a.3.3 0 0 1-.202-.082.28.28 0 0 1-.084-.2v-.562a.28.28 0 0 1 .084-.199.3.3 0 0 1 .202-.082m9.6-.9a.57.57 0 0 0-.457-.225H6.57a.58.58 0 0 0-.457.225l-.685.9h5.142zm-6.6 15.012c.011.14.076.27.182.366a.57.57 0 0 0 .386.147h8.292a.57.57 0 0 0 .386-.147.56.56 0 0 0 .182-.366l1.179-12.987H2.107z"/></svg>